<?xml version="1.0" standalone="no"?>
<!DOCTYPE svg PUBLIC "-//W3C//DTD SVG 20010904//EN"
 "http://www.w3.org/TR/2001/REC-SVG-20010904/DTD/svg10.dtd">
<svg version="1.0" xmlns="http://www.w3.org/2000/svg"
 width="558.000000pt" height="558.000000pt" viewBox="0 0 558.000000 558.000000"
 preserveAspectRatio="xMidYMid meet">
<metadata>
Created by potrace 1.11, written by Peter Selinger 2001-2013
</metadata>
<g transform="translate(0.000000,558.000000) scale(0.100000,-0.100000)"
fill="#000000" stroke="none">
<path d="M1897 5139 c-9 -5 -22 -7 -29 -3 -6 4 -8 3 -5 -3 4 -6 0 -14 -9 -17
-8 -3 -13 -2 -10 3 3 5 -1 12 -10 15 -8 3 -12 2 -9 -3 3 -5 1 -12 -5 -16 -5
-3 -10 -1 -10 6 0 7 -3 9 -7 6 -3 -4 -13 -1 -21 6 -10 8 -13 8 -9 1 7 -13 -19
-28 -33 -19 -4 3 -10 -3 -12 -13 -4 -12 -14 -17 -34 -16 -16 1 -35 -4 -43 -10
-11 -8 -13 -8 -7 2 4 7 2 12 -4 12 -7 0 -14 -9 -17 -19 -3 -11 -12 -18 -21
-16 -10 1 -23 -2 -29 -8 -9 -6 -13 -5 -14 4 0 8 -5 3 -10 -10 -5 -12 -15 -21
-22 -18 -18 7 -59 -11 -52 -23 3 -5 -3 -10 -14 -10 -12 0 -21 -7 -21 -15 0 -8
-9 -15 -20 -15 -13 0 -18 -5 -14 -15 4 -10 0 -15 -15 -15 -12 0 -21 -6 -21
-14 0 -8 -9 -18 -20 -21 -11 -3 -20 -13 -20 -21 0 -8 -4 -12 -10 -9 -5 3 -15
3 -21 -1 -8 -4 -7 -9 2 -15 9 -5 10 -9 2 -9 -6 0 -9 -9 -6 -20 6 -22 -14 -25
-30 -5 -4 6 -7 1 -6 -10 5 -65 -1 -95 -20 -95 -14 0 -19 -8 -20 -32 0 -18 -2
-44 -2 -58 -1 -14 1 -37 4 -52 3 -16 2 -28 -2 -28 -4 0 -8 -7 -8 -15 0 -8 3
-15 7 -15 4 0 6 -18 5 -40 -2 -32 1 -40 14 -38 15 3 17 -1 20 -41 0 -10 10
-21 22 -24 12 -3 18 -10 14 -16 -3 -7 2 -11 14 -11 12 0 21 -7 21 -15 0 -8 8
-15 19 -15 11 0 21 -9 24 -21 3 -12 10 -18 15 -15 6 3 25 -6 43 -21 18 -16 30
-22 25 -15 -4 6 -3 12 2 12 5 0 14 -12 20 -26 7 -14 8 -23 2 -19 -5 3 -10 2
-10 -3 0 -15 28 -22 34 -9 2 7 5 -7 5 -30 1 -23 -4 -45 -11 -49 -7 -4 -8 -3
-4 4 4 8 2 10 -8 6 -8 -3 -12 -12 -9 -20 3 -9 -2 -14 -16 -14 -12 0 -21 -6
-21 -15 0 -13 -19 -20 -43 -16 -5 1 -6 -3 -2 -8 3 -6 13 -8 23 -5 15 5 15 4 1
-5 -9 -6 -55 -11 -103 -13 -47 -1 -86 -6 -86 -10 0 -5 4 -7 8 -4 4 2 13 1 20
-3 6 -3 -62 -8 -152 -9 -136 -1 -165 1 -170 13 -6 17 -46 21 -46 5 0 -5 -5
-10 -11 -10 -5 0 -8 4 -4 9 3 6 -24 10 -62 10 -255 0 -274 1 -267 14 6 10 4
10 -7 0 -7 -7 -19 -13 -27 -13 -8 0 -10 5 -6 13 6 10 4 10 -7 0 -14 -14 -181
-19 -177 -5 2 4 -1 7 -7 7 -5 0 -9 -4 -7 -8 1 -5 -2 -6 -8 -2 -6 3 -8 10 -5
15 3 5 -9 9 -27 9 -18 0 -57 2 -86 3 -43 3 -52 1 -47 -10 4 -12 2 -12 -8 -3
-15 11 -15 10 -18 -122 0 -15 -4 -25 -9 -22 -5 3 -12 0 -16 -6 -4 -7 -3 -9 4
-5 6 3 13 2 17 -4 5 -9 -5 -14 -25 -12 -3 0 -6 -8 -6 -19 0 -18 2 -18 12 -5
14 20 21 20 21 1 0 -8 -7 -17 -15 -20 -8 -3 -12 -12 -9 -19 3 -8 1 -17 -6 -20
-7 -2 -4 -5 6 -5 14 -1 17 4 12 19 -3 11 -3 20 2 20 18 0 11 -41 -10 -56 l-22
-16 23 7 c28 8 30 -11 2 -20 -11 -4 -17 -11 -14 -17 4 -6 10 -5 15 3 10 17 10
17 13 -43 2 -43 -3 -52 -24 -50 -3 0 -6 -8 -6 -19 0 -18 2 -18 12 -5 6 9 14
16 18 16 11 0 2 -24 -14 -37 -12 -10 -13 -14 -2 -25 11 -11 12 -10 7 5 -4 9
-3 17 2 17 5 0 9 -20 9 -44 -1 -44 -1 -44 -21 -28 -11 9 -14 10 -7 2 15 -18
16 -34 0 -24 -7 4 -8 3 -4 -4 4 -6 13 -9 21 -5 8 3 15 0 15 -6 0 -10 -14 -15
-33 -12 -5 1 -5 -3 -2 -9 4 -6 12 -9 19 -7 7 3 12 -6 11 -24 0 -26 -6 -33 -25
-31 -3 0 -6 -8 -6 -19 0 -18 2 -18 12 -5 14 20 21 20 21 1 0 -8 -7 -17 -15
-20 -8 -3 -12 -12 -9 -19 3 -8 1 -17 -6 -20 -7 -2 -4 -5 6 -5 14 -1 17 4 12
19 -3 11 -3 20 2 20 18 0 11 -41 -10 -56 l-22 -16 23 7 c28 8 30 -11 2 -20
-11 -4 -17 -11 -14 -17 4 -6 10 -5 15 3 10 17 10 17 13 -43 2 -43 -3 -52 -24
-50 -3 0 -6 -8 -6 -19 0 -18 2 -18 12 -5 6 9 14 16 18 16 11 0 2 -24 -14 -37
-12 -10 -13 -14 -2 -25 11 -11 12 -10 7 5 -4 9 -3 17 2 17 5 0 9 -20 9 -44 -1
-44 -1 -44 -21 -28 -11 9 -14 10 -7 2 15 -18 16 -34 0 -24 -7 4 -8 3 -4 -4 4
-6 13 -9 21 -5 8 3 15 0 15 -6 0 -10 -14 -15 -33 -12 -5 1 -5 -3 -2 -9 4 -6
12 -9 19 -7 7 3 12 -6 11 -24 0 -27 -7 -34 -28 -30 -5 1 -6 -3 -2 -8 3 -6 13
-7 22 -4 10 4 14 2 9 -5 -3 -6 -2 -14 4 -17 8 -5 7 -12 -2 -23 -11 -13 -10
-15 4 -9 18 6 44 -24 32 -36 -3 -3 4 -3 15 0 15 4 21 1 19 -8 -2 -8 7 -15 20
-17 12 -2 22 -10 22 -18 0 -14 13 -16 105 -14 72 1 76 2 71 16 -3 9 7 14 32
16 23 2 36 8 34 16 -1 6 3 12 9 12 5 0 7 6 3 13 -6 10 -4 10 7 0 18 -18 34
-16 20 1 -8 10 -9 16 -1 21 6 3 8 11 5 16 -4 5 5 9 19 9 20 0 24 4 19 18 -5
14 -3 13 10 -3 13 -16 17 -17 18 -5 1 8 1 19 0 24 -1 5 6 6 15 2 10 -4 17 0
21 12 3 14 14 17 58 17 36 -1 56 3 59 12 3 7 11 13 18 12 10 0 10 -2 1 -6 -27
-10 -11 -18 36 -18 30 0 47 4 43 10 -3 6 1 5 9 -1 8 -6 26 -10 42 -9 19 1 27
-3 27 -14 0 -11 10 -16 35 -17 75 -3 77 -4 71 -19 -3 -9 -1 -15 7 -14 28 3 39
-2 33 -16 -5 -14 18 -21 48 -16 5 1 3 -6 -5 -15 -12 -16 -12 -17 3 -11 10 3
22 -1 30 -11 11 -13 11 -14 -1 -7 -10 5 -12 4 -7 -3 4 -7 14 -12 22 -12 8 0
14 -6 14 -14 0 -7 9 -16 20 -19 12 -3 20 -14 20 -27 0 -22 23 -53 33 -44 2 3
4 -3 4 -13 0 -35 3 -44 12 -38 17 10 20 -10 22 -113 1 -56 5 -100 9 -97 5 3
12 0 16 -6 4 -7 3 -9 -4 -5 -17 10 -22 -8 -23 -73 -1 -43 -5 -61 -14 -61 -15
0 -28 -27 -19 -41 3 -5 -4 -9 -15 -9 -17 0 -21 -6 -21 -30 0 -24 -4 -30 -21
-30 -15 0 -19 -5 -15 -15 4 -11 -1 -15 -19 -15 -18 0 -23 -4 -19 -15 4 -10 0
-15 -14 -15 -12 0 -22 -9 -26 -22 -4 -14 -9 -19 -13 -13 -11 15 -58 3 -58 -14
0 -10 -12 -15 -35 -16 -19 0 -40 -4 -47 -8 -6 -4 -14 -1 -16 5 -3 7 -6 4 -6
-7 -1 -17 -8 -21 -40 -20 -23 0 -37 4 -33 10 3 6 -2 4 -12 -4 -15 -13 -19 -13
-27 0 -5 8 -9 9 -9 3 0 -6 -7 -11 -14 -11 -8 0 -15 3 -14 6 2 24 -6 30 -35 29
-42 -1 -55 7 -69 40 -10 25 -11 26 -18 7 -6 -17 -8 -16 -14 13 -4 18 -11 30
-16 27 -10 -6 -32 20 -23 28 3 4 -3 7 -15 7 -13 0 -22 6 -22 15 0 8 -9 15 -20
15 -11 0 -20 7 -20 15 0 13 -35 21 -56 13 -4 -2 -10 6 -14 17 -7 18 -16 20
-106 19 -142 -2 -144 -2 -144 -20 0 -12 -6 -15 -21 -11 -15 4 -19 2 -15 -8 3
-8 -3 -16 -12 -19 -9 -3 -23 -15 -30 -27 -8 -12 -9 -19 -5 -16 5 3 9 -18 9
-48 -1 -52 -1 -53 -21 -37 -11 9 -14 10 -7 2 15 -18 16 -34 0 -24 -7 4 -8 3
-4 -4 4 -6 13 -9 21 -5 8 3 15 0 15 -6 0 -10 -14 -15 -33 -12 -5 1 -5 -3 -2
-9 4 -6 12 -9 19 -7 7 3 12 -6 11 -24 0 -26 -6 -33 -25 -31 -3 0 -6 -8 -6 -19
0 -18 2 -18 12 -5 14 20 21 20 21 1 0 -8 -7 -17 -15 -20 -8 -3 -12 -12 -9 -19
3 -8 1 -17 -6 -20 -7 -2 -4 -5 6 -5 14 -1 17 4 12 19 -3 11 -3 20 2 20 18 0
11 -41 -10 -56 l-22 -16 23 7 c28 8 30 -11 2 -20 -11 -4 -17 -11 -14 -17 4 -6
10 -5 15 3 10 17 10 17 13 -43 2 -43 -3 -52 -24 -50 -3 0 -6 -8 -6 -19 0 -18
2 -18 12 -5 6 9 14 16 18 16 10 0 2 -23 -14 -40 -9 -8 -11 -12 -6 -7 19 14 28
7 15 -10 -10 -11 -10 -14 -1 -9 9 5 12 -6 12 -43 0 -28 3 -50 8 -50 22 4 29
-4 26 -27 -1 -14 -5 -28 -8 -31 -3 -3 -1 -13 4 -23 6 -12 4 -24 -7 -40 -9 -13
-11 -20 -5 -16 7 4 12 1 13 -6 0 -7 2 -25 3 -40 1 -16 -3 -28 -9 -28 -5 0 -5
-4 2 -8 6 -4 10 -20 9 -35 -2 -17 2 -27 10 -27 7 0 15 -4 19 -9 3 -6 -4 -8
-15 -6 -11 2 -18 0 -15 -6 4 -5 12 -9 20 -9 10 0 13 -24 15 -97 1 -54 2 -110
2 -124 1 -17 6 -26 16 -25 13 1 15 -15 16 -86 1 -49 5 -88 10 -88 4 0 3 -7 -4
-15 -9 -11 -9 -15 -1 -15 7 0 9 -5 5 -12 -5 -8 -2 -9 9 -5 15 6 17 -4 17 -88
0 -107 -8 -99 93 -96 30 1 47 -2 47 -10 0 -8 4 -8 15 1 13 11 14 10 9 -4 -5
-14 -2 -17 17 -16 41 4 51 1 43 -12 -5 -8 -1 -7 10 2 16 13 20 12 33 -5 12
-15 14 -16 10 -3 -5 14 1 16 34 15 34 -2 37 -4 22 -15 -14 -10 -14 -12 -2 -12
8 0 21 6 28 12 11 11 13 11 7 0 -8 -13 -5 -13 47 -16 20 -1 31 -7 29 -15 -1
-7 2 -10 8 -6 6 3 8 10 6 14 -3 4 19 7 49 7 30 0 55 -2 55 -5 0 -2 -8 -10 -17
-18 -12 -10 -9 -10 10 1 19 12 26 13 25 4 -2 -9 9 -13 35 -12 20 1 37 -2 37
-7 0 -4 7 -5 17 -2 9 4 14 2 10 -3 -3 -5 3 -10 13 -10 12 0 16 4 10 11 -6 7
10 9 47 6 37 -2 51 -6 42 -12 -9 -6 -10 -9 -2 -9 7 0 17 8 22 17 10 17 10 16
11 -2 0 -15 2 -17 9 -7 10 16 80 22 88 8 4 -5 1 -6 -5 -2 -7 4 -12 3 -12 -2 0
-6 11 -9 24 -8 15 0 21 5 16 11 -5 7 11 9 47 6 34 -2 51 -6 43 -11 -8 -5 -4
-8 13 -7 15 1 22 6 17 12 -5 7 9 9 41 7 31 -3 47 -8 42 -15 -3 -5 -1 -7 5 -3
5 3 13 0 16 -6 3 -7 3 -2 0 11 -4 16 -3 21 5 16 7 -4 19 -1 28 7 12 9 15 9 9
1 -4 -7 -2 -13 3 -13 10 0 15 14 12 34 -1 5 7 6 19 3 13 -3 20 0 20 9 0 8 9
18 19 22 20 7 21 8 21 43 0 11 4 18 9 14 18 -11 28 30 26 105 -3 96 -2 93 -20
86 -14 -5 -21 21 -16 61 1 7 -7 9 -19 6 -14 -4 -20 0 -20 11 0 9 -7 16 -16 16
-8 0 -13 4 -10 9 3 5 -1 14 -10 21 -12 11 -12 15 -2 21 9 6 7 9 -8 9 -17 0
-20 7 -21 41 0 23 -8 49 -19 62 -16 18 -16 20 -1 8 13 -10 17 -11 17 -1 0 7
-8 19 -17 26 -17 13 -17 14 0 8 15 -5 17 2 17 65 0 66 2 71 21 71 14 0 19 5
16 15 -4 8 -1 17 5 21 7 4 6 10 -3 16 -10 7 -8 8 8 5 17 -4 23 0 25 17 2 11 9
20 17 18 7 -1 15 7 18 18 3 12 12 19 22 18 9 -2 15 3 14 10 -2 6 4 13 12 13 8
1 20 3 25 4 6 1 17 3 25 4 8 0 12 7 9 15 -4 11 3 14 30 12 25 -1 38 3 41 15 4
12 18 15 60 14 30 -1 60 2 67 6 7 4 18 3 25 -3 9 -7 13 -7 13 1 0 8 5 9 16 3
9 -5 32 -6 50 -2 19 5 34 4 34 -1 0 -5 5 -9 11 -9 5 0 7 5 3 11 -4 8 0 8 15 0
16 -9 21 -9 21 1 0 8 3 9 8 3 4 -6 27 -11 52 -12 68 -1 72 -2 65 -13 -6 -10 7
-14 34 -11 8 2 10 -2 5 -11 -6 -11 -5 -11 8 0 12 10 18 10 23 1 6 -8 10 -7 16
2 7 11 10 9 15 -9 4 -13 12 -21 19 -18 6 2 18 0 26 -5 11 -7 11 -9 1 -9 -7 0
-11 -4 -7 -10 3 -5 12 -7 20 -3 10 3 15 -2 15 -16 0 -12 5 -21 11 -21 6 0 9 7
6 14 -4 10 -1 13 8 10 8 -3 14 -9 13 -12 -3 -25 4 -42 17 -42 9 0 15 -10 15
-26 0 -17 6 -28 19 -31 16 -4 19 -14 18 -81 0 -45 -5 -80 -11 -84 -8 -5 -7 -8
2 -8 6 0 12 -5 12 -11 0 -5 -4 -7 -10 -4 -5 3 -10 1 -10 -5 0 -6 -5 -8 -12 -4
-8 5 -7 0 2 -11 9 -11 10 -16 3 -11 -9 5 -13 0 -13 -13 0 -14 -6 -21 -20 -21
-13 0 -18 -5 -14 -15 4 -11 -1 -15 -17 -16 -13 0 -18 -3 -11 -6 13 -5 17 -24
5 -22 -24 4 -53 -2 -53 -12 0 -5 4 -8 9 -4 5 3 13 0 17 -6 4 -7 3 -9 -4 -5 -6
3 -13 2 -17 -3 -3 -6 -13 -7 -23 -4 -13 4 -13 2 3 -11 16 -13 17 -15 3 -10
-15 5 -18 0 -19 -32 -1 -35 0 -100 2 -147 0 -9 7 -17 15 -17 8 0 14 -6 14 -14
0 -8 6 -17 13 -19 9 -4 9 -6 -1 -6 -7 -1 -11 -5 -7 -11 3 -5 12 -7 20 -3 13 5
20 -7 16 -30 0 -4 15 -7 34 -7 24 0 35 -5 35 -15 0 -15 15 -19 57 -15 16 1 21
-3 18 -12 -5 -14 9 -17 95 -22 22 -2 34 -7 32 -15 -1 -7 2 -10 8 -6 6 3 8 10
6 14 -6 10 100 8 110 -1 3 -4 14 -4 23 1 26 13 96 7 93 -8 -1 -7 2 -10 8 -6 6
3 8 10 6 14 -3 4 48 7 112 6 64 -1 127 2 139 6 12 5 25 4 28 0 3 -5 14 -7 25
-4 11 3 17 10 13 17 -4 6 1 5 11 -3 14 -12 17 -12 14 -1 -2 11 18 15 102 16
58 1 107 3 110 4 3 1 20 2 38 2 18 0 32 6 32 13 0 7 20 12 58 12 112 1 162 7
158 20 -4 9 11 12 52 11 101 -1 132 2 132 13 0 5 -5 7 -12 3 -6 -4 -8 -3 -5 3
4 6 39 11 78 12 55 1 76 6 86 19 12 16 13 16 7 0 -4 -12 -1 -18 10 -18 9 0 16
7 16 15 0 8 9 15 19 15 17 0 19 7 18 63 -1 34 -6 68 -10 75 -5 6 -4 12 1 12 6
0 8 9 5 20 -3 11 -13 20 -22 20 -13 0 -14 2 -1 9 8 6 18 7 22 5 4 -3 5 2 2 11
-5 12 -9 13 -20 4 -12 -10 -14 3 -14 80 0 71 -3 91 -12 85 -10 -6 -10 -4 0 7
18 19 15 37 -7 44 -15 5 -20 15 -19 45 0 27 4 38 12 33 6 -4 5 1 -3 10 -12 15
-12 20 5 32 15 12 16 14 2 9 -13 -4 -17 0 -15 18 0 12 6 26 12 30 6 5 6 8 -2
8 -8 0 -13 14 -13 36 0 25 -3 33 -12 28 -10 -6 -10 -4 -2 7 17 23 17 79 -1 79
-8 0 -15 3 -16 8 0 4 -2 17 -3 29 -2 13 2 23 7 23 5 0 5 6 -2 13 -8 10 -7 17
1 25 9 9 9 12 0 12 -10 0 -10 5 -2 20 6 11 7 20 3 20 -4 0 -8 22 -8 49 0 27 4
47 8 44 5 -3 4 4 -2 14 -6 11 -8 22 -6 25 2 2 5 18 7 35 1 18 6 30 10 27 4 -3
5 -12 2 -22 -5 -14 -4 -15 5 -2 6 8 11 34 11 57 0 33 3 41 15 37 8 -4 12 -11
8 -18 -3 -6 -2 -7 2 -3 13 11 15 38 3 31 -7 -4 -8 -2 -4 4 4 7 13 12 20 12 8
0 19 7 26 15 7 8 21 15 31 15 13 0 17 5 13 18 -5 16 -5 16 6 0 10 -16 12 -16
32 4 21 21 22 21 28 2 7 -19 21 -22 103 -24 15 -1 31 -8 34 -16 3 -8 19 -14
37 -14 23 0 27 -3 16 -10 -8 -5 -11 -12 -7 -16 3 -4 14 -1 24 7 11 9 14 10 9
1 -5 -8 -1 -12 12 -12 11 0 22 -9 25 -20 4 -14 10 -18 23 -13 14 5 16 2 12
-15 -5 -16 -2 -20 14 -17 14 3 18 0 14 -10 -4 -11 2 -15 19 -15 19 0 25 -5 25
-21 0 -15 4 -19 16 -15 11 4 18 -1 21 -14 3 -11 9 -17 15 -14 5 3 16 0 25 -8
10 -7 14 -8 10 -1 -5 7 0 9 13 6 10 -3 18 -10 17 -17 -1 -7 21 -11 68 -12 52
0 70 -3 70 -14 0 -7 6 -15 13 -18 6 -2 12 1 12 8 0 6 -6 8 -12 4 -7 -4 -9 -3
-5 1 11 13 37 15 34 3 -1 -6 4 -13 11 -15 8 -3 10 1 6 14 -6 16 -5 16 9 -2 10
-12 16 -15 17 -7 0 7 5 10 10 7 6 -3 10 0 10 7 0 9 19 13 73 13 50 0 72 4 73
13 3 23 4 24 19 12 11 -9 15 -9 15 -1 0 7 8 11 18 9 9 -2 16 3 15 10 -3 11 10
17 30 13 5 -1 11 8 14 19 3 12 12 19 22 18 10 -2 15 3 13 12 -3 12 -1 13 9 2
19 -18 34 -15 18 5 -10 11 -10 14 -1 9 11 -6 17 5 13 27 0 4 8 7 19 7 13 0 18
5 14 15 -4 10 0 15 16 15 12 0 18 4 15 10 -3 6 4 14 17 19 13 6 19 10 14 10
-5 1 -3 8 4 16 7 8 9 15 4 15 -5 0 1 8 14 18 18 14 23 28 24 60 0 41 11 55 21
30 3 -7 6 -1 6 15 1 15 5 27 11 27 6 0 6 9 1 23 -6 14 -5 29 0 38 8 11 9 11 7
-3 -2 -9 1 -17 7 -17 13 -1 14 78 2 107 -6 12 -15 22 -20 22 -5 0 -4 6 2 14 8
10 9 16 1 21 -6 3 -7 11 -4 17 9 15 25 -13 18 -34 -2 -9 -1 -19 3 -21 5 -3 9
10 9 28 0 20 -5 36 -13 39 -7 3 -13 10 -13 15 0 6 6 8 13 5 10 -3 14 3 13 20
-1 14 -5 28 -9 32 -3 4 -5 -3 -2 -15 2 -13 -1 -21 -10 -21 -12 0 -12 6 -4 27
7 19 7 29 0 31 -6 2 -8 8 -5 13 3 6 11 3 18 -6 10 -15 12 -14 11 8 0 14 -3 29
-7 33 -4 4 -3 13 3 21 9 10 8 13 -1 13 -9 0 -9 4 1 17 13 16 12 17 -3 5 -10
-8 -14 -20 -11 -30 3 -9 2 -14 -2 -10 -5 5 -9 25 -10 45 -3 52 -3 53 -20 53
-11 0 -15 12 -16 43 -1 23 -1 45 0 50 0 4 -4 7 -9 7 -6 0 -10 -6 -10 -12 0
-10 -3 -9 -9 1 -5 7 -7 21 -5 30 3 9 0 23 -6 31 -9 13 -11 13 -20 0 -8 -12
-10 -10 -10 10 0 49 -4 60 -22 60 -10 0 -18 7 -18 16 0 10 -6 14 -15 10 -13
-5 -20 5 -16 27 0 4 -8 7 -19 7 -14 0 -20 7 -20 21 0 11 -4 18 -9 15 -14 -9
-42 5 -34 17 4 6 0 8 -10 4 -10 -4 -17 -2 -17 4 0 6 -7 8 -15 5 -10 -3 -19 1
-23 12 -4 9 -19 18 -36 19 -15 1 -35 8 -44 15 -8 7 -43 13 -79 14 -34 0 -66 3
-69 7 -3 3 -12 3 -20 0 -7 -3 -49 -6 -92 -6 -53 -1 -85 -7 -98 -17 -18 -14
-18 -14 -5 3 8 10 9 17 3 17 -6 0 -15 -7 -20 -16 -5 -8 -24 -16 -43 -17 -19
-2 -39 -6 -46 -10 -6 -4 -14 -1 -16 5 -3 7 -6 3 -6 -9 -1 -16 -6 -21 -16 -17
-9 4 -18 -2 -24 -17 -5 -13 -10 -20 -10 -16 -1 4 -10 3 -21 -3 -11 -6 -18 -15
-15 -19 2 -5 -5 -11 -16 -14 -12 -3 -18 -10 -14 -17 4 -7 0 -10 -10 -8 -10 2
-20 -3 -23 -11 -2 -8 0 -11 6 -7 6 4 6 -3 -1 -19 -7 -14 -17 -25 -24 -25 -6 0
-15 -5 -19 -12 -5 -8 -1 -9 12 -4 14 5 16 4 8 -4 -6 -6 -20 -12 -32 -13 -11 0
-23 -9 -25 -19 -3 -12 -12 -16 -27 -13 -18 3 -20 2 -10 -10 7 -8 11 -15 9 -16
-8 -1 -116 -1 -149 1 -29 1 -32 3 -15 10 18 8 18 9 -5 10 -14 2 -29 2 -33 1
-5 -1 -11 8 -14 19 -4 13 -11 19 -20 16 -9 -4 -17 1 -20 13 -3 11 -12 21 -21
23 -13 2 -16 18 -17 78 0 41 -4 81 -9 89 -5 8 -5 12 0 8 5 -3 9 12 9 34 0 21
-4 39 -8 39 -5 0 -5 5 -2 10 3 6 0 13 -8 16 -20 7 -22 94 -3 94 8 0 18 5 22
12 5 7 3 8 -6 3 -9 -6 -11 -4 -5 5 5 8 9 24 10 37 0 17 -4 22 -15 18 -11 -4
-11 -2 2 8 13 11 15 16 6 25 -7 7 -8 12 -2 12 5 0 9 38 9 84 0 46 3 82 8 79 4
-2 7 0 7 6 0 5 -5 13 -10 16 -8 5 -7 11 1 21 6 8 8 14 3 14 -10 0 -11 51 0 68
3 6 3 13 -1 15 -5 3 -8 36 -7 74 0 58 3 68 17 65 16 -3 21 29 19 133 0 11 5
23 12 27 8 6 8 8 -1 8 -13 0 -13 67 1 89 6 10 5 12 -2 7 -7 -4 -12 -2 -12 3 0
6 5 11 10 11 6 0 10 7 10 16 0 9 -5 12 -12 8 -7 -4 -8 -3 -4 4 4 6 13 9 21 5
11 -4 13 -1 9 11 -6 14 -25 16 -140 15 -115 -1 -133 -3 -137 -17 -4 -15 -5
-15 -6 1 -1 13 -10 17 -43 16 -33 0 -38 -2 -23 -9 16 -7 17 -9 3 -9 -9 -1 -20
4 -23 9 -9 15 -25 12 -25 -4 0 -12 -44 -15 -267 -16 -353 -1 -397 -3 -405 -15
-5 -6 -8 -5 -8 2 0 7 -11 12 -25 11 -18 -2 -24 -7 -20 -18 3 -9 -1 -7 -10 4
-13 18 -20 15 -16 -6 0 -5 -98 -8 -219 -8 -158 0 -219 3 -217 11 1 6 -11 13
-28 16 -16 2 -34 10 -40 17 -5 7 -17 15 -26 18 -11 4 -15 16 -14 32 3 20 -1
26 -16 26 -26 0 -27 57 -1 62 11 2 17 13 18 33 0 23 4 29 17 27 11 -2 17 4 17
18 0 14 7 20 21 20 19 0 20 2 8 17 -8 9 -9 14 -3 10 7 -4 14 2 17 13 3 11 13
20 22 20 11 0 15 5 11 15 -4 10 1 15 14 15 12 0 20 7 20 16 0 12 6 15 20 11
17 -4 20 -1 18 16 -2 16 2 22 17 22 14 0 19 6 17 19 -2 12 1 16 9 10 9 -5 10
-2 5 11 -5 14 -4 16 7 6 12 -9 14 -6 15 16 1 154 2 162 17 157 8 -4 15 -1 15
5 0 7 -7 14 -15 17 -12 5 -15 26 -15 99 0 97 -5 125 -22 125 -6 0 -6 -6 1 -14
8 -10 9 -16 1 -21 -5 -3 -11 -5 -11 -3 -2 3 -6 49 -8 81 -1 10 -9 17 -22 17
-15 0 -19 4 -15 16 5 12 2 15 -10 10 -11 -4 -18 1 -21 14 -3 11 -14 20 -24 20
-10 0 -21 5 -25 12 -4 7 -3 8 4 4 7 -4 10 -2 6 7 -3 8 -15 13 -28 12 -24 -3
-48 7 -47 19 1 3 -2 6 -6 7 -15 1 -33 21 -27 30 3 5 -3 6 -12 2 -11 -4 -13 -8
-6 -11 7 -2 12 -8 12 -14 0 -5 -11 -1 -24 10 -14 10 -38 18 -54 17 -25 -1 -29
2 -25 19 4 19 3 18 -10 -3 -9 -15 -17 -20 -21 -12 -4 6 -2 11 3 11 6 0 11 4
11 9 0 5 -11 8 -26 6 -14 -1 -35 6 -47 15 -16 13 -27 16 -40 8 -13 -6 -23 -5
-35 4 -15 11 -15 11 -4 -3 10 -14 10 -18 -3 -23 -9 -3 -14 -2 -11 3 3 5 -1 12
-10 15 -8 3 -12 2 -9 -3 3 -5 1 -12 -5 -16 -5 -3 -10 -1 -10 6 0 7 -3 9 -7 6
-3 -4 -13 -1 -21 6 -13 9 -14 9 -8 0 4 -7 3 -13 -1 -13 -5 0 -15 6 -22 13 -9
7 -11 7 -8 1 4 -7 0 -15 -8 -18 -9 -3 -18 1 -21 9 -4 8 -10 12 -15 9 -5 -3 -7
-8 -5 -12 2 -4 -9 -7 -25 -7 -16 0 -29 1 -29 2 0 1 12 9 28 17 15 8 23 15 17
15 -5 0 -18 -4 -28 -10z m273 -17 c0 -4 -9 -8 -20 -8 -22 0 -27 12 -7 19 14 5
27 -1 27 -11z m-2025 -1110 c-3 -3 -11 0 -18 7 -9 10 -8 11 6 5 10 -3 15 -9
12 -12z m655 4 c0 -2 -7 -7 -16 -10 -8 -3 -12 -2 -9 4 6 10 25 14 25 6z m3173
-1001 c-3 -9 -8 -14 -10 -11 -3 3 -2 9 2 15 9 16 15 13 8 -4z m1051 -61 c3 -8
2 -12 -4 -9 -6 3 -10 10 -10 16 0 14 7 11 14 -7z m-3733 -451 c13 -16 12 -17
-3 -4 -10 7 -18 15 -18 17 0 8 8 3 21 -13z m-7 -29 c3 -8 2 -12 -4 -9 -6 3
-10 10 -10 16 0 14 7 11 14 -7z m4171 -25 c11 -17 -1 -21 -15 -4 -8 9 -8 15
-2 15 6 0 14 -5 17 -11z m0 -263 c3 -26 0 -33 -10 -29 -10 3 -11 11 -5 29 6
16 6 24 -1 24 -6 0 -7 5 -4 11 10 16 17 4 20 -35z m-3491 -704 c3 -5 -1 -9 -9
-9 -8 0 -12 4 -9 9 3 4 7 8 9 8 2 0 6 -4 9 -8z m2049 -57 c-3 -9 -8 -14 -10
-11 -3 3 -2 9 2 15 9 16 15 13 8 -4z m-548 -845 c-3 -5 -12 -10 -18 -10 -7 0
-6 4 3 10 19 12 23 12 15 0z"/>
<path d="M70 3706 c0 -2 7 -7 16 -10 8 -3 12 -2 9 4 -6 10 -25 14 -25 6z"/>
<path d="M78 3673 c6 -2 9 -10 6 -15 -4 -7 -2 -8 5 -4 13 9 5 26 -12 25 -9 0
-8 -2 1 -6z"/>
<path d="M70 3556 c0 -2 7 -9 15 -16 9 -7 15 -8 15 -2 0 5 -7 12 -15 16 -8 3
-15 4 -15 2z"/>
<path d="M70 3226 c0 -2 7 -7 16 -10 8 -3 12 -2 9 4 -6 10 -25 14 -25 6z"/>
<path d="M78 3193 c6 -2 9 -10 6 -15 -4 -7 -2 -8 5 -4 13 9 5 26 -12 25 -9 0
-8 -2 1 -6z"/>
<path d="M70 3076 c0 -2 7 -9 15 -16 9 -7 15 -8 15 -2 0 5 -7 12 -15 16 -8 3
-15 4 -15 2z"/>
<path d="M80 2140 c6 -11 13 -20 16 -20 2 0 0 9 -6 20 -6 11 -13 20 -16 20 -2
0 0 -9 6 -20z"/>
<path d="M70 2116 c0 -2 7 -9 15 -16 9 -7 15 -8 15 -2 0 5 -7 12 -15 16 -8 3
-15 4 -15 2z"/>
<path d="M666 2068 c3 -4 9 -8 15 -8 5 0 9 4 9 8 0 5 -7 9 -15 9 -8 0 -12 -4
-9 -9z"/>
<path d="M4325 1900 c3 -5 8 -10 11 -10 2 0 4 5 4 10 0 6 -5 10 -11 10 -5 0
-7 -4 -4 -10z"/>
<path d="M70 1786 c0 -2 7 -7 16 -10 8 -3 12 -2 9 4 -6 10 -25 14 -25 6z"/>
<path d="M78 1753 c6 -2 9 -10 6 -15 -4 -7 -2 -8 5 -4 13 9 5 26 -12 25 -9 0
-8 -2 1 -6z"/>
<path d="M1096 481 c-4 -5 -2 -12 3 -15 5 -4 12 -2 15 3 4 5 2 12 -3 15 -5 4
-12 2 -15 -3z"/>
<path d="M976 468 c3 -5 10 -6 15 -3 13 9 11 12 -6 12 -8 0 -12 -4 -9 -9z"/>
<path d="M1216 468 c3 -5 10 -6 15 -3 13 9 11 12 -6 12 -8 0 -12 -4 -9 -9z"/>
<path d="M1336 468 c3 -5 10 -6 15 -3 13 9 11 12 -6 12 -8 0 -12 -4 -9 -9z"/>
</g>
</svg>
